<?xml version="1.0" encoding="UTF-8" standalone="no"?>
<!-- Created with Inkscape (http://www.inkscape.org/) -->

<svg
   xmlns:dc="http://purl.org/dc/elements/1.1/"
   xmlns:cc="http://creativecommons.org/ns#"
   xmlns:rdf="http://www.w3.org/1999/02/22-rdf-syntax-ns#"
   xmlns:svg="http://www.w3.org/2000/svg"
   xmlns="http://www.w3.org/2000/svg"
   xmlns:sodipodi="http://sodipodi.sourceforge.net/DTD/sodipodi-0.dtd"
   xmlns:inkscape="http://www.inkscape.org/namespaces/inkscape"
   width="19.540432mm"
   height="19.540434mm"
   viewBox="0 0 19.540432 19.540434"
   version="1.1"
   id="svg92"
   inkscape:version="0.92.4 (5da689c313, 2019-01-14)"
   sodipodi:docname="logo-prin.svg">
  <defs
     id="defs86" />
  <sodipodi:namedview
     id="base"
     pagecolor="#ffffff"
     bordercolor="#666666"
     borderopacity="1.0"
     inkscape:pageopacity="0.0"
     inkscape:pageshadow="2"
     inkscape:zoom="0.8"
     inkscape:cx="-129.85643"
     inkscape:cy="-256.42694"
     inkscape:document-units="mm"
     inkscape:current-layer="layer1"
     showgrid="false"
     inkscape:window-width="1280"
     inkscape:window-height="961"
     inkscape:window-x="-8"
     inkscape:window-y="-8"
     inkscape:window-maximized="1" />
  <metadata
     id="metadata89">
    <rdf:RDF>
      <cc:Work
         rdf:about="">
        <dc:format>image/svg+xml</dc:format>
        <dc:type
           rdf:resource="http://purl.org/dc/dcmitype/StillImage" />
        <dc:title></dc:title>
      </cc:Work>
    </rdf:RDF>
  </metadata>
  <g
     inkscape:label="Capa 1"
     inkscape:groupmode="layer"
     id="layer1"
     transform="translate(-22.735739,-21.134543)">
    <path
       d="m 22.735739,27.648014 h 6.513468 v -6.513471 h 6.513484 v 6.513471 h 6.51348 v 6.513481 h -6.51348 v 6.513481 h -6.513484 v -6.513481 h -6.513468 z"
       style="fill:#e30016;fill-rule:evenodd;stroke-width:0.10583333"
       id="path2"
       inkscape:connector-curvature="0" />
    <path
       d="m 42.036711,27.648014 c -5.761216,0.997395 -10.237108,1.980703 -15.072084,6.513481 h -2.4304 c 4.835008,-4.532799 9.311092,-5.516054 15.07236,-6.513481 z"
       style="fill:#ffffff;fill-rule:evenodd;stroke-width:0.10583333"
       id="path4"
       inkscape:connector-curvature="0" />
    <path
       d="m 42.276171,28.043376 c -4.779784,0.917014 -8.819368,2.173531 -13.026964,6.118119 h -2.28458 c 4.835008,-4.532799 9.311088,-5.516054 15.072348,-6.513481 h 0.239196 z"
       style="fill:none;stroke-width:0.10583333"
       id="path6"
       inkscape:connector-curvature="0" />
    <path
       d="m 42.276171,28.573505 c -2.86764,0.708163 -5.482708,1.723221 -8.126624,3.655135 -1.185664,0.866404 -2.839064,2.223642 -3.852896,3.2913 -0.375272,0.395234 -0.717456,0.802672 -1.047444,1.214596 v -2.573041 c 4.21184,-3.948589 8.229952,-5.203529 13.026964,-6.120786 z"
       style="fill:#ffe700;fill-rule:evenodd;stroke-width:0.10583333"
       id="path8"
       inkscape:connector-curvature="0" />
    <path
       d="m 42.276171,28.573505 c -2.86764,0.708163 -5.482708,1.723221 -8.126624,3.655135 -1.185664,0.866404 -2.839064,2.223642 -3.852896,3.2913 -0.375272,0.395234 -0.717456,0.802672 -1.047444,1.214596 v 2.459323 l 0.29422,-0.458724 c 2.630064,-4.071366 6.64374,-7.578534 12.732744,-9.308263 z"
       style="fill:none;stroke-width:0.10583333"
       id="path10"
       inkscape:connector-curvature="0" />
    <path
       d="m 42.276171,30.248254 c -2.813664,0.819839 -4.896368,2.339489 -6.51348,3.913241 -2.677488,2.605712 -4.528156,6.513481 -4.528156,6.513481 h -1.985328 v -1.481117 l 0.29422,-0.458724 c 2.630064,-4.071366 6.64374,-7.578534 12.732744,-9.308263 z"
       style="fill:#ffffff;fill-rule:evenodd;stroke-width:0.10583333"
       id="path12"
       inkscape:connector-curvature="0" />
  </g>
</svg>
